<?xml version="1.0" encoding="utf-8"?>
<!-- Generator: Adobe Illustrator 24.3.0, SVG Export Plug-In . SVG Version: 6.00 Build 0)  -->
<svg version="1.1" id="ART" xmlns="http://www.w3.org/2000/svg" xmlns:xlink="http://www.w3.org/1999/xlink" x="0px" y="0px"
	 viewBox="0 0 120 120" style="enable-background:new 0 0 120 120;" xml:space="preserve">
<style type="text/css">
	.st0{fill:#DEEFFF;}
	.st1{fill:none;}
	.st2{fill:#007B4B;}
</style>
<g>
	<path class="st0" d="M64.8,105.3V92.7H39c-5,0-9.1-3.9-9.1-8.6v-0.2v-1V25.4c0-0.5,0-0.9,0.1-1.3C19.7,32.7,13.2,45.6,13.2,60
		c0,25.8,21,46.8,46.8,46.8c6.6,0,12.9-1.4,18.7-3.9L73,97.6L64.8,105.3z"/>
	<path class="st0" d="M60,13.2c-6.4,0-12.5,1.3-18,3.6h36C72.5,14.5,66.4,13.2,60,13.2z"/>
	<g>
		<path class="st1" d="M50.8,43.2h10.4v24.4c0,1,0.8,1.8,1.8,1.8h0.7c1,0,1.8-0.8,1.8-1.8V43.2h10.4c1,0,1.8-0.8,1.8-1.8V41
			c0-1-0.8-1.8-1.8-1.8H65.5v-0.1v-9.5c0-1-0.8-1.8-1.8-1.8H63c-1,0-1.8,0.8-1.8,1.8v9.5v0.1H50.8c-1,0-1.8,0.8-1.8,1.8v0.4
			C49,42.4,49.8,43.2,50.8,43.2z"/>
		<path class="st1" d="M32.6,25.4v52.9c1.4-1.3,3.1-2.2,5.1-2.5V19.5C34.8,20.1,32.6,22.5,32.6,25.4z"/>
		<path class="st2" d="M89.2,90.3h-8v-4h6.9c1.1,0,2-0.9,2-2c0-1.1-0.9-2-2-2H40.6c-1.1,0-2,0.9-2,2c0,1.1,0.9,2,2,2h24.3v4H39
			c-3.6,0-6.4-2.7-6.5-6c0.1-3.2,3-5.9,6.5-5.9h51v-53c0-0.5-0.1-1-0.1-1.4c-0.7-4-4.5-7.2-9-7.2H78H42h-3c-4.5,0-8.3,3.2-9,7.3
			c-0.1,0.4-0.1,0.9-0.1,1.3v57.5v1v0.2c0,4.7,4.1,8.6,9.1,8.6h25.8v12.6l8.2-7.7l5.7,5.3l2.5,2.4v-3.6v-8.9h8
			c0.4,0,0.8-0.4,0.8-0.8v-0.9C90,90.6,89.7,90.3,89.2,90.3z"/>
	</g>
	<path class="st0" d="M106.8,60c0-14.5-6.6-27.4-16.9-36c0.1,0.5,0.1,0.9,0.1,1.4v53H39c-3.5,0-6.4,2.7-6.5,5.9c0.1,3.3,2.9,6,6.5,6
		h25.9v-4H40.6c-1.1,0-2-0.9-2-2c0-1.1,0.9-2,2-2h47.5c1.1,0,2,0.9,2,2c0,1.1-0.9,2-2,2h-6.9v4h8c0.5,0,0.8,0.3,0.8,0.8V92
		c0,0.4-0.4,0.8-0.8,0.8h-8v8.9C96.4,94,106.8,78.2,106.8,60z"/>
	<path class="st0" d="M50.8,43.2h10.4v24.4c0,1,0.8,1.8,1.8,1.8h0.7c1,0,1.8-0.8,1.8-1.8V43.2h10.4c1,0,1.8-0.8,1.8-1.8V41
		c0-1-0.8-1.8-1.8-1.8H65.5v-0.1v-9.5c0-1-0.8-1.8-1.8-1.8H63c-1,0-1.8,0.8-1.8,1.8v9.5v0.1H50.8c-1,0-1.8,0.8-1.8,1.8v0.4
		C49,42.4,49.8,43.2,50.8,43.2z"/>
	<path class="st0" d="M37.7,19.5c-2.9,0.6-5.1,3-5.1,5.9v52.9c1.4-1.3,3.1-2.2,5.1-2.5V19.5z"/>
</g>
</svg>
